<svg width="15" height="15" viewBox="0 0 15 15" fill="none" xmlns="http://www.w3.org/2000/svg">
<path d="M14.9998 7.49942C14.9998 8.58252 14.9998 9.66563 14.9998 10.7487C14.9923 11.5973 14.7281 12.4236 14.2419 13.1191C13.7556 13.8146 13.0702 14.3467 12.2758 14.6452C11.6 14.8974 10.882 15.0172 10.1609 14.998C8.282 14.998 6.4031 14.998 4.5242 14.998C3.61496 15.0188 2.7208 14.7634 1.95981 14.2654C1.04034 13.6963 0.379166 12.7909 0.116869 11.742C0.0415001 11.4215 0.0022988 11.0936 0 10.7645C0 8.62971 0 6.49497 0 4.34898C0 3.2479 0.307906 2.25917 1.09228 1.46145C1.83327 0.661796 2.83969 0.158671 3.92412 0.0457779C4.59837 -0.0148939 5.27261 0.00308295 5.93337 0.000835844C7.36727 0.000835844 8.80342 0.000835844 10.2396 0.000835844C11.2127 0.000835844 12.1477 0.158133 12.9793 0.697438C13.9015 1.24813 14.5755 2.13367 14.8604 3.16925C14.9465 3.5224 14.991 3.88439 14.993 4.24786C15.0087 5.33097 14.993 6.41407 14.993 7.49717L14.9998 7.49942ZM1.12375 7.49942C1.12375 8.59376 1.12375 9.68585 1.12375 10.7802C1.12375 12.0498 1.79799 12.9104 2.87679 13.4992C3.40132 13.7638 3.98428 13.8913 4.5714 13.87C6.50648 13.87 8.44157 13.87 10.3767 13.87C11.0491 13.8816 11.7122 13.7115 12.296 13.3778C13.3119 12.7891 13.8693 11.9217 13.8693 10.742C13.8827 8.55107 13.8872 6.36014 13.8693 4.16697C13.8693 2.87039 13.1343 2.01424 12.0263 1.44572C11.5279 1.20929 10.9797 1.09674 10.4284 1.11765C8.5045 1.11765 6.58065 1.11765 4.65455 1.11765C4.03801 1.1015 3.42688 1.23651 2.87454 1.51089C1.79799 2.07042 1.14847 2.94229 1.12375 4.18944C1.09678 5.29276 1.12375 6.39609 1.12375 7.49942Z" fill="#373334"/>
<path d="M1.12375 7.49942V10.7802C1.12375 12.0498 1.79799 12.9104 2.87679 13.4992C3.40132 13.7638 3.98428 13.8913 4.5714 13.87H10.3767C11.0491 13.8816 11.7122 13.7115 12.296 13.3778C13.3119 12.7891 13.8693 11.9217 13.8693 10.742C13.8827 8.55107 13.8872 6.36014 13.8693 4.16697C13.8693 2.87039 13.1343 2.01424 12.0263 1.44572C11.5279 1.20929 10.9797 1.09674 10.4284 1.11765H4.65455C4.03801 1.1015 3.42688 1.23651 2.87454 1.51089C1.79799 2.07042 1.14847 2.94229 1.12375 4.18944C1.09678 5.29276 1.12375 6.39609 1.12375 7.49942Z" fill="#373334"/>
<path d="M7.50623 10.7036C6.82057 10.6934 6.15324 10.4807 5.58818 10.0923C5.02311 9.70391 4.58553 9.1571 4.33049 8.52067C4.07544 7.88425 4.01432 7.18663 4.1548 6.51556C4.29529 5.84449 4.6311 5.22994 5.12002 4.7492C5.60893 4.26847 6.22911 3.94302 6.90255 3.81378C7.57598 3.68455 8.27261 3.7573 8.90479 4.02289C9.53698 4.28848 10.0765 4.73505 10.4555 5.30643C10.8345 5.87781 11.036 6.54848 11.0348 7.23409C11.0241 8.16109 10.6471 9.04622 9.98598 9.69625C9.32489 10.3463 8.43343 10.7084 7.50623 10.7036ZM5.10815 7.22735C5.09923 7.70471 5.23265 8.17392 5.49141 8.57519C5.75016 8.97646 6.12255 9.29162 6.56111 9.48051C6.99967 9.6694 7.48455 9.72348 7.95396 9.63584C8.42337 9.5482 8.85606 9.32283 9.19689 8.98842C9.53772 8.65402 9.77126 8.22574 9.86775 7.75814C9.96425 7.29055 9.91932 6.80482 9.7387 6.36285C9.55808 5.92088 9.24995 5.54268 8.85356 5.27644C8.45718 5.0102 7.99049 4.86798 7.51297 4.86789C6.88218 4.86545 6.27589 5.11184 5.82566 5.55357C5.37544 5.9953 5.11762 6.59674 5.10815 7.22735Z" fill="white"/>
<path d="M12.1834 3.4589C12.1781 3.60404 12.1302 3.74441 12.0456 3.86248C11.961 3.98055 11.8435 4.07109 11.7077 4.12279C11.572 4.17449 11.424 4.18507 11.2823 4.15321C11.1406 4.12135 11.0114 4.04845 10.9108 3.94362C10.8103 3.83879 10.7428 3.70667 10.7169 3.56376C10.691 3.42084 10.7078 3.27347 10.7652 3.14003C10.8225 3.00659 10.9179 2.89299 11.0394 2.81343C11.161 2.73386 11.3032 2.69185 11.4485 2.69264C11.6465 2.70021 11.8337 2.78434 11.9708 2.92729C12.1079 3.07024 12.1842 3.26084 12.1834 3.4589Z" fill="white"/>
</svg>
