<svg width="214" height="48" viewBox="0 0 214 48" fill="none" xmlns="http://www.w3.org/2000/svg">
<path d="M213.604 9.48871C213.531 9.56227 213.421 9.67262 213.421 9.74618C213.239 12.0634 212.218 13.9025 210.577 15.4841C209.921 16.1094 209.884 16.1094 210.322 16.9186C211.161 18.4634 211.489 20.1553 211.306 21.8841C211.015 24.3484 209.848 26.3714 207.843 27.8794C206.493 28.8725 204.998 29.5346 203.358 29.5346C188.044 29.5346 172.729 29.4978 157.415 29.461C151.8 29.461 146.221 29.461 140.606 29.461C140.424 29.461 140.278 29.461 140.023 29.461C140.205 28.7254 140.351 28.0265 140.533 27.3645C141.736 22.4725 142.976 17.5806 144.179 12.6519C144.252 12.3209 144.398 12.2105 144.69 12.2473C146.148 12.2473 147.607 12.2473 149.065 12.2473C149.393 12.2473 149.503 12.2841 149.393 12.6887C148.664 15.5944 147.935 18.4634 147.242 21.3691C147.023 22.2151 146.841 23.0611 146.622 23.907C146.549 24.2381 146.622 24.3484 146.951 24.3116C147.096 24.3116 147.279 24.3116 147.425 24.3116C165.947 24.3116 184.47 24.3116 203.03 24.3484C203.832 24.3484 204.524 24.2381 205.144 23.6863C205.728 23.1714 206.129 22.5461 206.275 21.7369C206.639 19.6036 205.436 17.7645 203.248 17.4335C201.826 17.2128 200.441 17.2864 199.055 17.2864C185.455 17.2496 171.854 17.2864 158.254 17.2864C158.072 17.2864 157.853 17.2864 157.598 17.2864C157.78 16.6243 157.926 16.0358 158.072 15.4473C158.327 14.491 158.546 13.5347 158.801 12.5784C158.874 12.2473 159.02 12.137 159.348 12.137C160.004 12.2105 160.697 12.2105 161.353 12.2473C166.713 12.2841 172.037 12.3209 177.397 12.3577C180.86 12.3944 184.288 12.4312 187.752 12.4312C190.742 12.468 193.732 12.5048 196.722 12.5048C199.493 12.5416 202.264 12.5784 205.035 12.5784C205.947 12.5784 206.785 12.2841 207.478 11.622C208.317 10.8128 208.608 9.81974 208.535 8.64274C208.462 7.31861 207.405 5.92091 206.092 5.62666C205.728 5.5531 205.327 5.47954 204.926 5.47954C199.237 5.47954 193.586 5.47954 187.898 5.47954C176.923 5.44276 165.947 5.40597 154.972 5.40597C144.252 5.36919 133.532 5.33241 122.849 5.33241C122.193 5.33241 122.193 5.33241 122.047 5.9577C120.953 10.4082 119.859 14.822 118.765 19.2726C117.963 22.5093 117.161 25.7461 116.359 28.9829C116.322 29.13 116.14 29.3139 115.994 29.3139C114.426 29.3507 112.858 29.3139 111.254 29.3139C111.217 29.3139 111.145 29.2771 111.035 29.2771C111.327 28.1369 111.582 27.0334 111.874 25.93C113.442 19.6404 114.973 13.3875 116.541 7.09792C117.088 4.89103 117.635 2.68415 118.145 0.477265C118.218 0.10945 118.401 0.0358887 118.765 0.0358887C137.798 0.0358887 156.832 0.0358887 175.829 0.0358887C185.929 0.0358887 196.065 0.0358887 206.165 0.0358887C207.186 0.0358887 208.098 0.440484 208.936 0.881861C210.431 1.69105 211.525 2.86806 212.327 4.33931C212.984 5.58988 213.531 6.84045 213.567 8.27493C213.567 8.34849 213.64 8.42205 213.677 8.49561C213.604 8.86343 213.604 9.15768 213.604 9.48871Z" fill="#373334"/>
<path d="M164.6 48.0001C164.819 46.8967 165.074 45.7932 165.293 44.653C165.329 44.3955 165.475 44.2852 165.73 44.322C166.095 44.3955 166.277 44.2116 166.423 43.8806C167.481 41.8576 168.028 39.7243 168.465 37.5174C168.502 37.2599 168.574 37.1128 168.866 37.1128C170.616 37.1128 172.403 37.1128 174.153 37.1128C174.226 37.1128 174.263 37.1496 174.372 37.1496C174.19 37.9955 174.007 38.8783 173.825 39.7243C173.533 41.1588 173.205 42.5564 172.914 43.9909C172.877 44.2484 172.914 44.3587 173.205 44.3587C173.497 44.3587 173.533 44.4691 173.46 44.7265C173.242 45.6461 173.059 46.5656 172.877 47.4852C172.841 47.6691 172.877 47.8162 172.877 48.0001C172.476 48.0001 172.075 48.0001 171.637 48.0001C171.783 47.1909 171.965 46.3817 172.111 45.5357C170.142 45.5357 168.21 45.5357 166.241 45.5357C166.095 46.3817 165.986 47.1909 165.84 48.0001C165.439 48.0001 165.001 48.0001 164.6 48.0001ZM172.622 38.2898C171.783 38.2898 170.981 38.3266 170.215 38.2898C169.851 38.2898 169.741 38.4369 169.632 38.768C169.158 40.3496 168.611 41.8944 168.1 43.4392C167.991 43.7334 167.882 44.0277 167.772 44.3587C169.012 44.3587 170.142 44.3587 171.346 44.3587C171.783 42.3358 172.184 40.3496 172.622 38.2898Z" fill="#373334"/>
<path d="M97.7255 29.3883C99.6945 21.4068 101.663 13.4252 103.632 5.40687C103.304 5.40687 103.085 5.40687 102.867 5.40687C70.3423 5.40687 37.7815 5.40687 5.25714 5.44365C3.32464 5.44365 2.41309 4.08274 2.41309 2.5747C2.44955 1.39769 3.14233 0.331033 4.2362 0.0735631C4.45497 0.0367817 4.67375 0 4.85606 0C35.1927 0 65.5293 0 95.8659 0C100.533 0 105.164 0 109.831 0C110.013 0 110.196 0 110.414 0C110.159 1.10344 109.867 2.20689 109.612 3.27355C109.466 3.93561 109.357 4.63446 109.175 5.29652C108.847 6.65744 108.445 8.01835 108.081 9.37926C107.242 12.6896 106.404 15.9999 105.601 19.3102C104.799 22.547 104.033 25.8206 103.231 29.0573C103.195 29.1677 103.049 29.3516 102.94 29.3516C101.226 29.3884 99.4757 29.3883 97.7255 29.3883Z" fill="#9F0023"/>
<path d="M36.1055 29.5721C25.8231 29.5721 15.5408 29.5721 5.22195 29.5721C3.98223 29.5721 2.99775 28.8733 2.63313 27.6962C2.30497 26.7031 2.74252 25.5997 3.727 24.9009C4.23747 24.533 4.82087 24.4595 5.40426 24.4595C10.509 24.4595 15.6502 24.4595 20.7549 24.4595C36.1055 24.4595 51.4197 24.4595 66.7703 24.4595C68.2288 24.4595 69.6144 23.1354 69.8331 21.7009C70.0154 20.3767 69.7237 19.2733 68.7393 18.3538C68.1559 17.8388 67.4995 17.5078 66.6974 17.5078C55.6858 17.5078 44.6742 17.5078 33.6625 17.5078C32.5687 17.5078 31.7665 17.0664 31.2925 16.0365C30.782 14.9699 31.0008 13.9768 31.7665 13.1676C32.2405 12.6526 32.8239 12.3584 33.5896 12.3584C44.4918 12.3584 55.3576 12.3584 66.2598 12.3584C70.453 12.3584 73.9898 15.3377 74.7555 19.4204C75.266 22.1055 74.5368 24.4963 72.7866 26.556C71.3645 28.248 69.5414 29.1675 67.3902 29.5353C67.2078 29.5721 67.0255 29.5353 66.8797 29.5353C56.5973 29.5721 46.3514 29.5721 36.1055 29.5721Z" fill="#373334"/>
<path d="M151.181 45.4984C150.524 45.4984 149.832 45.4984 149.175 45.4984C148.884 45.4984 148.774 45.4248 148.847 45.0938C149.394 42.5191 149.941 39.9444 150.488 37.3697C150.524 37.2593 150.743 37.0754 150.852 37.0754C152.129 37.0754 153.441 37.0754 154.717 37.149C155.629 37.1858 156.249 37.7743 156.468 38.657C156.65 39.3927 156.285 40.2754 155.593 40.6432C155.483 40.7168 155.337 40.7536 155.192 40.8639C154.973 41.011 154.936 41.1214 155.192 41.3053C155.52 41.5628 155.848 41.8202 156.03 42.1513C156.468 42.8869 156.14 43.5857 155.738 44.2478C155.301 44.9834 154.535 45.2777 153.733 45.388C152.858 45.4984 151.983 45.4984 151.144 45.5352C151.181 45.5352 151.181 45.5352 151.181 45.4984ZM152.092 44.3214C152.457 44.3214 152.821 44.3214 153.186 44.3214C153.842 44.2846 154.353 44.0639 154.645 43.4386C154.936 42.7398 154.645 42.0041 153.879 41.8938C153.004 41.7835 152.092 41.8202 151.181 41.8202C151.108 41.8202 150.998 41.9674 150.998 42.0409C150.852 42.6662 150.707 43.3283 150.561 43.9536C150.524 44.1742 150.597 44.3214 150.852 44.3214C151.29 44.3214 151.691 44.3214 152.092 44.3214ZM151.327 40.68C152.347 40.6432 153.223 40.6065 154.098 40.5329C154.718 40.4593 155.082 39.834 155.009 39.1352C154.936 38.5835 154.572 38.2892 153.879 38.2892C153.405 38.2892 152.931 38.2892 152.493 38.2892C151.837 38.2892 151.801 38.2892 151.691 38.9513C151.545 39.4662 151.472 40.0179 151.327 40.68Z" fill="#373334"/>
<path d="M74.5357 45.499C73.8429 45.499 73.1501 45.499 72.4938 45.499C72.2021 45.499 72.1292 45.3886 72.2021 45.1311C72.749 42.5564 73.296 39.9817 73.8429 37.407C73.8793 37.2599 74.0981 37.1128 74.2075 37.1128C75.4837 37.1128 76.7963 37.1128 78.0725 37.1864C79.057 37.2599 79.7133 37.922 79.8592 38.8415C79.9686 39.43 79.5675 40.4599 78.7288 40.7909C78.583 40.8277 78.5101 40.9748 78.4007 41.0852C78.5101 41.1955 78.583 41.3059 78.6924 41.3794C79.6039 41.9679 79.7862 42.7771 79.3852 43.7702C78.9476 44.8001 78.109 45.2783 77.088 45.3886C76.2494 45.499 75.3743 45.499 74.5357 45.5357C74.5357 45.5357 74.5357 45.5357 74.5357 45.499ZM73.9158 44.322C74.9368 44.322 75.8483 44.3587 76.7234 44.322C77.3068 44.322 77.7808 43.9909 77.9996 43.4392C78.2913 42.7403 77.9996 42.0047 77.2703 41.8944C76.614 41.784 75.9577 41.8208 75.2649 41.8208C74.4263 41.8208 74.3898 41.8208 74.2075 42.6668C74.1346 43.1817 74.0252 43.7334 73.9158 44.322ZM76.4682 38.2898C76.14 38.2898 75.8119 38.253 75.5202 38.2898C75.3743 38.3266 75.192 38.4737 75.1555 38.584C75.0097 39.099 74.9003 39.6507 74.7909 40.2024C74.718 40.4599 74.7909 40.607 75.1191 40.607C75.7025 40.607 76.3223 40.6438 76.9057 40.607C77.2339 40.5702 77.562 40.4967 77.8537 40.3496C78.2913 40.1289 78.5101 39.5036 78.4007 38.9886C78.2913 38.5473 77.9267 38.2898 77.3797 38.2898C77.0516 38.2898 76.7599 38.2898 76.4682 38.2898Z" fill="#373334"/>
<path d="M194.643 37.1128C194.279 38.8783 193.914 40.607 193.549 42.3358C193.586 42.3725 193.622 42.4093 193.695 42.4093C193.914 42.2254 194.133 42.0783 194.315 41.8576C195.263 40.7174 196.211 39.5771 197.196 38.4737C197.414 38.2162 197.597 37.9955 197.816 37.7381C198.107 37.3335 198.435 37.0392 198.982 37.1496C199.201 37.1864 199.456 37.1496 199.748 37.1496C199.602 37.8484 199.456 38.4737 199.347 39.1358C198.909 41.1955 198.472 43.2185 198.034 45.2783C197.998 45.3886 197.816 45.5725 197.706 45.5725C196.321 45.5725 196.503 45.7932 196.795 44.5059C197.05 43.2185 197.342 41.9312 197.633 40.6438C197.67 40.5335 197.597 40.3863 197.56 40.276C197.451 40.3496 197.342 40.3496 197.269 40.4599C195.992 41.9679 194.716 43.5128 193.44 45.0208C193.003 45.5357 192.31 45.7932 191.726 45.6093C191.653 45.5725 191.544 45.3886 191.58 45.2783C191.836 44.0277 192.127 42.7771 192.383 41.5266C192.674 40.2024 192.93 38.9151 193.221 37.591C193.294 37.2967 193.404 37.1864 193.695 37.2231C193.914 37.1128 194.242 37.1128 194.643 37.1128Z" fill="#373334"/>
<path d="M160.623 37.1126C160.258 38.8781 159.894 40.6068 159.529 42.2988C159.566 42.3355 159.602 42.3723 159.675 42.3723C159.894 42.1884 160.112 42.0413 160.295 41.8206C161.243 40.6804 162.191 39.5402 163.175 38.4367C163.394 38.1792 163.613 37.9218 163.795 37.6643C164.087 37.2965 164.415 37.0022 164.926 37.0758C165.181 37.1126 165.4 37.0758 165.728 37.0758C165.545 37.9218 165.4 38.731 165.217 39.5034C164.816 41.3792 164.415 43.2919 164.014 45.1677C163.977 45.4252 163.868 45.462 163.649 45.462C162.337 45.4252 162.483 45.6459 162.774 44.3585C163.029 43.0712 163.321 41.7838 163.613 40.4965C163.649 40.3861 163.576 40.239 163.576 40.1287C163.467 40.1654 163.358 40.2022 163.285 40.3126C162.009 41.8206 160.696 43.3654 159.456 44.8735C159.019 45.3884 158.362 45.6459 157.742 45.462C157.67 45.4252 157.56 45.2413 157.597 45.1309C157.998 43.2183 158.399 41.3057 158.836 39.393C158.982 38.7677 159.128 38.1057 159.237 37.4804C159.274 37.1861 159.42 37.0758 159.711 37.0758C159.894 37.1126 160.222 37.1126 160.623 37.1126Z" fill="#373334"/>
<path d="M104.908 40.5335C104.835 42.5197 103.705 44.6898 101.699 45.4254C100.058 46.0139 98.3082 45.6461 97.3602 44.1381C96.8497 43.2921 96.7039 42.3358 96.9227 41.3427C97.1414 40.3496 97.4331 39.4301 98.053 38.6209C98.6729 37.8117 99.475 37.2968 100.46 37.0393C101.408 36.7818 102.356 36.8554 103.267 37.3703C104.325 37.9956 104.944 39.2829 104.908 40.5335ZM98.3447 42.1519C98.3447 43.0346 98.5999 43.8071 99.4386 44.2117C100.314 44.6163 101.152 44.5059 101.882 43.9174C102.684 43.3289 103.048 42.4462 103.267 41.4898C103.449 40.7542 103.449 39.9818 103.121 39.2462C102.538 37.922 100.532 37.8117 99.5115 38.9151C98.7093 39.8347 98.3447 40.9381 98.3447 42.1519Z" fill="#373334"/>
<path d="M39.2398 40.6064C39.0575 42.4455 38.4012 44.1007 36.6874 45.1305C34.9737 46.1236 32.786 45.9397 31.6921 44.1742C31.1452 43.2915 31.0358 42.2984 31.2546 41.3053C31.4733 40.349 31.765 39.4294 32.3849 38.6202C33.0048 37.811 33.8434 37.2961 34.7914 37.0754C35.7394 36.8179 36.6874 36.8915 37.5625 37.4064C38.7658 38.0685 39.1669 39.2087 39.2398 40.6064ZM37.7084 40.5696C37.7084 40.4961 37.7084 40.4593 37.7084 40.3857C37.7084 39.3926 37.2708 38.657 36.5416 38.3628C35.4842 37.9582 34.4268 38.326 33.8434 38.9513C33.0048 39.8708 32.6401 41.011 32.6401 42.2984C32.6766 43.1076 32.8954 43.8064 33.6611 44.1742C34.4632 44.5788 35.229 44.542 35.9582 44.0639C37.2344 43.2179 37.599 41.9673 37.7084 40.5696Z" fill="#373334"/>
<path d="M71.3267 40.6064C71.1444 42.4455 70.4881 44.1007 68.7744 45.1305C67.0606 46.1236 64.8729 45.9397 63.779 44.1742C63.2321 43.2915 63.1227 42.2984 63.3415 41.3053C63.5603 40.349 63.852 39.4294 64.4718 38.6202C65.0917 37.811 65.9303 37.2961 66.8783 37.0754C67.8263 36.8179 68.7744 36.8915 69.6495 37.4064C70.8527 38.0685 71.2903 39.2087 71.3267 40.6064ZM64.7635 42.1145C64.7635 43.034 65.0187 43.6593 65.5292 44.0271C66.4408 44.6524 67.644 44.5788 68.4462 43.8064C69.4307 42.8501 69.8318 41.6731 69.7953 40.349C69.7953 39.3926 69.3213 38.657 68.5921 38.3995C67.4982 37.9582 66.4772 38.3995 65.9303 38.988C65.1281 39.834 64.7635 40.9375 64.7635 42.1145Z" fill="#373334"/>
<path d="M7.26467 44.432C8.32208 44.3585 8.50439 44.2114 8.72316 43.1815C9.12425 41.3056 9.52533 39.393 9.96288 37.5171C9.99934 37.37 10.1817 37.1125 10.291 37.1125C12.0412 37.0758 13.8279 37.1125 15.651 37.1125C15.4687 37.9585 15.3228 38.7309 15.1405 39.5401C14.7394 41.416 14.3384 43.3286 13.9373 45.2044C13.8643 45.4619 13.7914 45.5355 13.5362 45.5355C13.2445 45.5355 12.9893 45.5355 12.6976 45.5355C12.4059 45.5355 12.3694 45.4251 12.4059 45.1677C12.8434 43.1079 13.281 41.0482 13.7185 38.9884C13.8643 38.3999 13.7914 38.3263 13.208 38.3263C12.6976 38.3263 12.2235 38.3263 11.7131 38.3263C11.3849 38.3263 11.2391 38.3999 11.1661 38.7677C10.8015 40.5332 10.4004 42.3355 9.96288 44.0642C9.63472 45.2412 8.90548 45.7562 7.84807 45.7194C7.6293 45.7194 7.41052 45.6826 7.22821 45.609C7.15529 45.5723 7.0459 45.3884 7.0459 45.3148C7.11882 44.9838 7.22821 44.7263 7.26467 44.432Z" fill="#373334"/>
<path d="M140.424 37.1128C140.205 38.1059 140.023 39.0622 139.841 40.0185C139.476 41.7473 139.075 43.476 138.71 45.2047C138.674 45.4622 138.565 45.499 138.346 45.499C138.054 45.499 137.799 45.499 137.507 45.499C137.215 45.499 137.143 45.3886 137.215 45.1311C137.653 43.0714 138.091 41.0116 138.528 38.9519C138.674 38.3266 138.637 38.2898 137.981 38.2898C137.471 38.2898 136.997 38.2898 136.486 38.2898C136.158 38.2898 136.049 38.4001 135.976 38.7312C135.575 40.5335 135.246 42.3358 134.736 44.0645C134.371 45.4622 133.423 45.9036 132.001 45.6093C131.928 45.5725 131.855 45.5357 131.746 45.499C131.819 45.1679 131.928 44.8001 132.001 44.4691C133.095 44.3587 133.314 44.1748 133.533 42.9978C133.934 41.1587 134.298 39.2829 134.7 37.4438C134.736 37.2967 134.918 37.1128 135.064 37.1128C136.814 37.1128 138.565 37.1128 140.424 37.1128Z" fill="#373334"/>
<path d="M186.074 37.112C185.855 38.2523 185.637 39.2821 185.381 40.4224C185.527 40.4591 185.673 40.4591 185.782 40.4591C186.694 40.4591 187.605 40.4591 188.553 40.4591C188.845 40.4591 188.991 40.3488 189.028 40.0913C189.21 39.2086 189.392 38.3626 189.574 37.4799C189.611 37.2224 189.72 37.0753 190.012 37.112C190.377 37.112 190.741 37.112 191.179 37.112C190.996 37.958 190.851 38.7304 190.668 39.5396C190.267 41.4155 189.866 43.3281 189.465 45.2039C189.429 45.4614 189.319 45.535 189.064 45.535C188.772 45.535 188.517 45.535 188.225 45.535C187.934 45.535 187.861 45.4246 187.934 45.1672C188.152 44.1741 188.371 43.2178 188.553 42.2247C188.663 41.7465 188.59 41.6729 188.152 41.6729C187.277 41.6729 186.439 41.6729 185.564 41.6729C185.235 41.6729 185.09 41.7465 185.017 42.0775C184.798 43.1442 184.543 44.1741 184.36 45.2407C184.324 45.4982 184.214 45.5718 183.996 45.535C183.85 45.535 183.74 45.535 183.595 45.535C182.574 45.535 182.756 45.535 182.938 44.7258C183.412 42.335 183.959 39.9442 184.47 37.5534C184.543 37.2224 184.652 37.112 184.98 37.112C185.308 37.112 185.673 37.112 186.074 37.112Z" fill="#373334"/>
<path d="M176.519 44.3585C178.196 44.3585 179.728 44.3585 181.332 44.3585C181.259 44.7263 181.186 45.0573 181.077 45.3516C181.04 45.4619 180.858 45.5355 180.749 45.5355C178.889 45.5355 177.03 45.5355 175.17 45.5355C174.878 45.5355 174.805 45.4251 174.878 45.1309C175.425 42.5562 175.972 40.0183 176.519 37.4436C176.556 37.2964 176.774 37.1125 176.884 37.1125C178.634 37.0758 180.421 37.1125 182.171 37.1125C182.426 37.1125 182.499 37.1493 182.426 37.4436C182.171 38.4735 182.317 38.2895 181.405 38.2895C180.348 38.2895 179.29 38.2895 178.269 38.2895C177.941 38.2895 177.795 38.3999 177.759 38.7309C177.686 39.3194 177.54 39.9079 177.394 40.5332C177.613 40.5332 177.795 40.57 177.978 40.57C179.072 40.57 180.129 40.57 181.223 40.57C181.77 40.57 181.77 40.57 181.624 41.1217V41.1585C181.587 41.6367 181.332 41.7838 180.822 41.7838C179.728 41.747 178.634 41.7838 177.54 41.7838C177.248 41.7838 177.103 41.8573 177.03 42.1884C176.847 42.8504 176.665 43.5493 176.519 44.3585Z" fill="#373334"/>
<path d="M126.934 40.5334C127.19 40.5334 127.335 40.5702 127.518 40.5702C128.648 40.5702 129.778 40.5702 130.872 40.5702C131.164 40.5702 131.273 40.607 131.164 40.938C130.909 41.8207 131.127 41.7472 130.143 41.7472C129.122 41.7472 128.138 41.784 127.117 41.7472C126.716 41.7472 126.57 41.8943 126.497 42.2253C126.387 42.9242 126.242 43.5862 126.096 44.3219C126.351 44.3219 126.497 44.3587 126.679 44.3587C127.919 44.3587 129.159 44.3587 130.398 44.3587C130.763 44.3587 130.909 44.3954 130.763 44.8368C130.508 45.6092 130.726 45.5724 129.851 45.5724C128.138 45.5724 126.424 45.5724 124.747 45.5724C124.418 45.5724 124.309 45.4989 124.382 45.1311C124.929 42.5931 125.476 40.0552 126.023 37.4805C126.059 37.3702 126.242 37.1863 126.351 37.1863C128.174 37.1863 129.997 37.1863 131.82 37.1863C131.857 37.1863 131.893 37.2231 132.003 37.2598C131.93 37.5541 131.893 37.8851 131.784 38.1794C131.747 38.2897 131.492 38.3633 131.346 38.3633C130.179 38.3633 129.049 38.4001 127.882 38.3633C127.481 38.3633 127.299 38.4369 127.226 38.915C127.226 39.3564 127.08 39.9081 126.934 40.5334Z" fill="#373334"/>
<path d="M113.405 37.186C113.332 37.5171 113.296 37.8481 113.15 38.1056C113.114 38.2159 112.858 38.2895 112.712 38.2895C111.546 38.2895 110.415 38.3263 109.249 38.2895C108.847 38.2895 108.665 38.363 108.629 38.8044C108.592 39.2458 108.483 39.6872 108.337 40.1285C108.228 40.4964 108.373 40.5699 108.702 40.5699C109.832 40.5699 110.962 40.5699 112.056 40.5699C112.202 40.5699 112.384 40.5699 112.603 40.5699C112.53 40.9377 112.457 41.2688 112.348 41.563C112.311 41.6734 112.056 41.7469 111.91 41.7469C110.743 41.7469 109.613 41.7469 108.446 41.7469C108.118 41.7469 107.936 41.8205 107.863 42.1883C107.754 42.7768 107.608 43.3653 107.498 43.9906C107.425 44.3216 107.608 44.3952 107.899 44.3952C109.176 44.3952 110.452 44.3952 111.691 44.3952C111.837 44.3952 112.02 44.3952 112.238 44.3952C112.166 44.763 112.093 45.094 111.983 45.3883C111.947 45.4986 111.764 45.5722 111.655 45.5722C109.759 45.5722 107.899 45.5722 106.003 45.5722C105.712 45.5722 105.675 45.4251 105.748 45.1676C106.186 43.1078 106.66 41.0113 107.097 38.9515C107.207 38.4734 107.28 37.9584 107.389 37.5171C107.425 37.3699 107.608 37.186 107.754 37.186C109.54 37.1492 111.327 37.186 113.114 37.186C113.223 37.1125 113.296 37.1492 113.405 37.186Z" fill="#373334"/>
<path d="M142.575 44.322C143.559 44.322 144.435 44.322 145.31 44.322C145.857 44.322 146.404 44.322 146.987 44.322C147.242 44.322 147.388 44.3587 147.279 44.6898C147.023 45.6093 147.242 45.499 146.258 45.499C144.58 45.499 142.94 45.499 141.262 45.499C140.861 45.499 140.752 45.4254 140.861 44.984C141.408 42.4461 141.919 39.9082 142.466 37.407C142.502 37.2967 142.684 37.1128 142.794 37.1128C144.617 37.1128 146.44 37.1128 148.263 37.1128C148.3 37.1128 148.336 37.1496 148.445 37.1864C148.372 37.5174 148.3 37.8116 148.19 38.1427C148.154 38.253 147.935 38.2898 147.789 38.2898C146.622 38.2898 145.492 38.3266 144.325 38.2898C143.924 38.2898 143.742 38.3634 143.669 38.8415C143.596 39.3932 143.45 39.945 143.304 40.5335C143.559 40.5335 143.705 40.5702 143.888 40.5702C145.018 40.5702 146.148 40.5702 147.242 40.5702C147.534 40.5702 147.643 40.607 147.534 40.9381C147.279 41.8208 147.497 41.7473 146.513 41.7473C145.492 41.7473 144.507 41.784 143.487 41.7473C143.085 41.7473 142.94 41.8944 142.867 42.2254C142.867 42.8875 142.721 43.5863 142.575 44.322Z" fill="#373334"/>
<path d="M207.805 37.1863C207.732 37.4805 207.695 37.8115 207.586 38.0322C207.513 38.1426 207.294 38.2529 207.148 38.2529C205.981 38.2897 204.778 38.2897 203.611 38.2529C203.283 38.2529 203.101 38.3265 203.064 38.6943C202.991 39.1725 202.882 39.6506 202.773 40.092C202.736 40.2023 202.736 40.3127 202.736 40.4966C203.101 40.4966 203.429 40.4966 203.721 40.4966C204.705 40.4966 205.69 40.4966 206.638 40.4966C206.929 40.4966 207.039 40.5334 206.929 40.8644C206.674 41.7472 206.893 41.6736 205.908 41.6736C204.888 41.6736 203.867 41.6736 202.846 41.6736C202.554 41.6736 202.372 41.7472 202.299 42.0782C202.189 42.7035 202.043 43.292 201.898 43.9173C201.861 44.0276 201.898 44.1012 201.934 44.2483C202.116 44.2483 202.335 44.2851 202.517 44.2851C203.757 44.2851 204.997 44.2851 206.237 44.2851C206.565 44.2851 206.747 44.3586 206.565 44.6897C206.528 44.8 206.492 44.9471 206.455 45.0575C206.419 45.3517 206.273 45.4621 205.981 45.4621C204.158 45.4621 202.299 45.4621 200.476 45.4621C200.147 45.4621 200.075 45.3885 200.147 45.0575C200.694 42.5196 201.241 39.9816 201.788 37.4069C201.825 37.2598 202.007 37.0759 202.116 37.0759C203.939 37.0391 205.763 37.0759 207.586 37.0759C207.659 37.1127 207.695 37.1495 207.805 37.1863Z" fill="#373334"/>
<path d="M21.4821 43.5864C20.3518 43.5864 19.2579 43.5864 18.164 43.5864C18.0547 43.5864 17.9088 43.6967 17.8359 43.8071C17.5442 44.2852 17.3254 44.7634 17.0337 45.2048C16.9608 45.3519 16.742 45.4622 16.5597 45.499C16.1951 45.5358 15.8305 45.499 15.3564 45.499C15.8669 44.5795 16.3045 43.6967 16.7785 42.8508C17.3254 41.8209 17.9088 40.791 18.4922 39.7611C18.9297 38.9519 19.3673 38.1427 19.8413 37.3703C19.9142 37.26 20.0965 37.1496 20.2424 37.1496C20.6799 37.1129 21.081 37.1496 21.5186 37.1496C21.7373 37.1496 21.8467 37.1864 21.8832 37.4439C22.2478 39.8347 22.6489 42.2255 23.0135 44.6163C23.05 44.9105 23.0865 45.2048 23.1594 45.5358C22.7583 45.5358 22.3572 45.5726 21.9926 45.499C21.8467 45.4622 21.7009 45.2416 21.6644 45.0944C21.5915 44.6163 21.555 44.1381 21.4821 43.5864ZM18.7474 42.4094C19.4402 42.4094 20.0965 42.4094 20.7164 42.4094C21.2633 42.4094 21.3363 42.299 21.2633 41.7473C21.1175 40.8278 20.9716 39.9083 20.8258 38.9887C20.8258 38.9152 20.7529 38.8416 20.7164 38.7313C20.6435 38.8048 20.5341 38.8416 20.4976 38.9152C19.9507 39.9083 19.4038 40.9014 18.8933 41.8944C18.7839 42.0416 18.7839 42.1887 18.7474 42.4094Z" fill="#373334"/>
<path d="M95.0268 45.4985C94.5527 45.4985 94.1152 45.4985 93.7141 45.4985C93.6047 45.4985 93.4953 45.3514 93.4589 45.241C93.2036 44.395 92.9849 43.5491 92.7296 42.7399C92.6202 42.3353 92.5108 41.9675 92.0368 41.7836C91.6358 41.6364 91.4534 41.71 91.3441 42.1514C91.1253 43.1813 90.8701 44.1744 90.6877 45.2042C90.6513 45.4985 90.5054 45.5353 90.2867 45.5353C90.1408 45.5353 90.0314 45.5353 89.8856 45.5353C89.0834 45.5353 89.0834 45.5353 89.2657 44.7261C89.7762 42.3353 90.2867 39.9077 90.7971 37.5169C90.8336 37.2595 90.943 37.1123 91.2347 37.1491C91.5993 37.1491 91.9639 37.1491 92.4015 37.1491C92.2556 37.7744 92.1462 38.3629 92.0368 38.9514C91.9275 39.3928 91.8545 39.8342 91.7451 40.2755C91.6722 40.6801 91.8181 40.864 92.2191 40.7169C92.5108 40.6066 92.8025 40.4227 92.9849 40.202C93.4589 39.5031 93.8964 38.7675 94.3704 38.0686C94.9174 37.2962 95.6831 37.0388 96.6676 37.1491C96.5582 37.4801 96.4852 37.7744 96.3758 38.0319C96.3394 38.1054 96.1571 38.2158 96.0477 38.179C95.5737 38.1422 95.3549 38.3997 95.1361 38.7675C94.808 39.3192 94.4433 39.8709 94.0423 40.3859C93.86 40.6433 93.5318 40.8272 93.2401 40.9744C93.0213 41.0847 92.9849 41.1951 93.1672 41.3054C93.9329 41.6732 94.1881 42.3721 94.3704 43.1445C94.5892 43.9169 94.808 44.6893 95.0268 45.4985Z" fill="#373334"/>
<path d="M55.4316 39.4297C54.9211 39.4664 54.4835 39.54 54.0095 39.5768C53.9731 39.5032 53.9001 39.4664 53.8637 39.3929C53.6814 38.2526 52.4781 38.0687 51.603 38.2894C50.6915 38.5101 50.1445 39.1354 49.7799 39.9814C49.3788 40.9377 49.1965 41.894 49.4153 42.9239C49.5611 43.6963 49.9987 44.2848 50.8009 44.4319C51.6759 44.5791 52.4417 44.3216 52.9886 43.5492C53.1709 43.3285 53.2803 43.0342 53.4626 42.74C53.9001 42.8135 54.3742 42.8871 54.8482 42.9607C54.0825 45.2043 51.6395 46.3446 49.5976 45.425C48.6496 44.9836 48.1026 44.1745 47.9203 43.1446C47.6286 41.563 47.9568 40.0917 48.8319 38.7676C49.8528 37.2228 52.077 36.5239 53.7543 37.2596C54.7023 37.6274 55.2493 38.363 55.4316 39.4297Z" fill="#373334"/>
<path d="M88.4639 39.4298C88.0264 39.4666 87.5888 39.5402 87.1513 39.5769C87.0784 39.5769 86.969 39.4666 86.969 39.393C86.8231 38.8045 86.5314 38.4367 85.948 38.2896C85.2917 38.1425 84.7083 38.1793 84.0885 38.5103C83.0675 39.062 82.7394 40.0551 82.5206 41.085C82.4112 41.6735 82.4112 42.3356 82.5206 42.9608C82.63 43.7332 83.104 44.285 83.8697 44.4321C84.7083 44.616 85.474 44.3217 86.021 43.6229C86.2033 43.4022 86.3127 43.108 86.495 42.7769C86.9325 42.8505 87.4065 42.9241 87.8805 42.9976C87.1513 45.2413 84.5989 46.4183 82.63 45.462C81.7184 45.0206 81.1715 44.2114 80.9892 43.2183C80.6975 41.6367 81.0256 40.1654 81.9007 38.8413C82.9217 37.2965 85.1094 36.5977 86.8231 37.3333C87.6982 37.554 88.391 38.5103 88.4639 39.4298Z" fill="#373334"/>
<path d="M1.2105 38.8407C1.61158 37.8108 2.37729 37.2959 3.28885 37.0384C4.23687 36.7809 5.14843 36.9648 5.98706 37.4798C7.26324 38.2522 7.2997 39.9441 6.05998 40.7901C5.87767 40.9004 5.73182 41.0108 5.54951 41.0843C5.22135 41.2315 5.25781 41.3786 5.51305 41.5257C6.97154 42.4085 6.60692 44.174 5.40366 44.9832C3.98163 45.9027 2.45022 45.9763 0.955262 45.1671C0.554177 44.9464 0.298941 44.4315 0.00724251 44.0269C-0.0292198 43.9901 0.080167 43.7694 0.153092 43.7326C0.481252 43.5855 0.845875 43.5119 1.17404 43.4384C1.24696 43.4384 1.42927 43.5487 1.5022 43.659C2.04913 44.5418 3.68993 44.7625 4.4921 44.0636C4.89319 43.6958 5.03904 43.1441 4.89319 42.666C4.71088 42.0774 4.23687 41.9303 3.68993 41.8568C3.54409 41.82 3.36177 41.8568 3.143 41.8568C3.21592 41.4522 3.28885 41.1211 3.36177 40.7533C3.39824 40.6798 3.58055 40.6062 3.68993 40.5694C3.98163 40.4958 4.34626 40.5326 4.63795 40.4223C5.25781 40.2016 5.51305 39.6867 5.44012 39.0246C5.40366 38.62 5.03904 38.2522 4.52857 38.2154C3.83578 38.1418 3.10654 38.1786 2.70545 38.9142C2.66899 38.9878 2.52314 39.0614 2.41375 39.0614C2.08559 39.0246 1.68451 38.9142 1.2105 38.8407Z" fill="#373334"/>
<path d="M39.6768 45.5723C39.6768 45.4619 39.7132 45.3516 39.7132 45.278C39.7497 44.5424 39.7497 44.5056 40.4789 44.5424C41.2446 44.5792 42.1927 43.5493 41.901 42.6665C41.3905 41.0482 40.9529 39.3562 40.4789 37.701C40.4425 37.5171 40.406 37.3332 40.3331 37.1125C40.8071 37.1125 41.2082 37.0758 41.6093 37.1125C41.7186 37.1125 41.901 37.2964 41.901 37.4068C42.1927 38.6574 42.4479 39.8711 42.7031 41.1217C42.7396 41.3056 42.849 41.4527 42.9584 41.5999C43.1042 41.4895 43.2865 41.416 43.3959 41.2688C44.3075 39.9815 45.219 38.6941 46.1306 37.4436C46.24 37.2964 46.4952 37.1861 46.6775 37.1493C47.0421 37.1125 47.4432 37.1493 47.8443 37.1493C47.8443 37.2229 47.8443 37.2964 47.8078 37.3332C45.9118 39.8344 44.0522 42.3723 42.1562 44.8734C41.5728 45.6826 40.6977 45.8665 39.6768 45.5723Z" fill="#373334"/>
<path d="M57.4692 45.499C57.9797 43.0714 58.4901 40.7174 58.9641 38.2898C58.089 38.2898 57.3233 38.2898 56.4482 38.2898C56.5212 37.8852 56.5941 37.5542 56.667 37.2599C56.7035 37.1864 56.8493 37.1128 56.9223 37.1128C59.0006 37.1128 61.0425 37.1128 63.1938 37.1128C63.1208 37.4806 63.0844 37.7749 62.975 38.0691C62.9385 38.1795 62.7198 38.2898 62.5739 38.2898C61.8811 38.3266 61.1883 38.2898 60.4591 38.2898C60.058 40.2024 59.6569 42.0415 59.2923 43.9174C59.1829 44.3587 59.1465 44.8001 59.0006 45.2415C58.9641 45.3518 58.7818 45.499 58.6724 45.499C58.3443 45.5357 57.9432 45.499 57.4692 45.499Z" fill="#373334"/>
<path d="M120.404 38.2898C119.493 38.2898 118.727 38.2898 117.888 38.2898C117.961 37.922 118.034 37.591 118.107 37.2599C118.107 37.1864 118.253 37.1128 118.326 37.1128C120.404 37.1128 122.482 37.1128 124.634 37.1128C124.561 37.4806 124.524 37.7749 124.415 38.0691C124.378 38.1795 124.16 38.2898 124.014 38.2898C123.321 38.3266 122.628 38.2898 121.899 38.2898C121.425 40.607 120.915 42.8507 120.477 45.1311C120.404 45.4254 120.331 45.5357 120.039 45.5357C119.675 45.5357 119.31 45.5357 118.873 45.5357C119.42 43.1082 119.894 40.7542 120.404 38.2898Z" fill="#373334"/>
<path d="M31.1085 37.1858C31.0356 37.4432 30.9991 37.7743 30.9262 38.0685C30.8897 38.1789 30.7074 38.2524 30.5615 38.2524C30.0146 38.2892 29.4677 38.2524 28.8843 38.2524C28.7384 38.2524 28.5561 38.2524 28.4103 38.2892C27.9363 40.5697 27.4258 42.8501 26.9882 45.0938C26.9153 45.388 26.8424 45.4984 26.5507 45.4984C26.1861 45.4984 25.8214 45.4984 25.4204 45.4984C25.6027 44.6156 25.785 43.7697 25.9673 42.9237C26.259 41.4892 26.5871 40.0915 26.8788 38.657C26.9518 38.3996 26.8424 38.2524 26.5507 38.2524C25.8579 38.2524 25.2016 38.2524 24.3994 38.2524C24.4723 37.8846 24.5088 37.5904 24.6182 37.2593C24.6546 37.1858 24.8005 37.0754 24.9099 37.0754C26.9518 37.0754 29.0301 37.0754 31.072 37.0754C31.0355 37.1122 31.0356 37.149 31.1085 37.1858Z" fill="#373334"/>
</svg>
