<svg width="16" height="16" viewBox="0 0 16 16" fill="none" xmlns="http://www.w3.org/2000/svg">
<g clip-path="url(#clip0_501_2391)">
<circle cx="8" cy="8" r="8" fill="#373334"/>
<path d="M9.7692 12.6591L9.30954 12.7904C8.40502 13.198 7.39766 13.3206 6.42118 13.1417C6.24039 13.118 6.07253 13.0349 5.94396 12.9053C5.85367 12.7976 5.7906 12.6697 5.76009 12.5324C5.72957 12.3952 5.7325 12.2526 5.76864 12.1169C5.81006 11.9259 5.91978 11.7567 6.07718 11.6412C6.23457 11.5256 6.42879 11.4716 6.62334 11.4893C6.87834 11.4884 7.1218 11.5306 7.37681 11.5296C7.93029 11.5017 8.47348 11.37 8.97815 11.1414C9.74144 10.823 10.405 10.3052 10.8995 9.64209C11.0617 9.40702 11.2031 9.15819 11.322 8.89843C11.4259 8.66191 11.6003 8.46335 11.8213 8.32984C11.958 8.25391 12.1139 8.2197 12.2699 8.23143C12.4259 8.24316 12.5751 8.30032 12.6991 8.39585C12.7871 8.44733 12.864 8.51575 12.9254 8.59716C12.9868 8.67856 13.0314 8.77132 13.0567 8.87007C13.082 8.96882 13.0875 9.07158 13.0729 9.17242C13.0582 9.27325 13.0237 9.37015 12.9713 9.45749C12.8058 9.93991 12.56 10.3908 12.2444 10.7912C11.9301 11.1725 11.5739 11.5171 11.1825 11.8187L10.9087 11.9768L11.0489 12.0299L14.3909 12.928C14.5581 12.9626 14.7097 13.0504 14.823 13.1783C14.9363 13.3062 15.0053 13.4673 15.0196 13.6376C15.0412 13.8085 15.0132 13.9821 14.9388 14.1374C14.8645 14.2927 14.747 14.4232 14.6003 14.5134C14.5142 14.5622 14.419 14.593 14.3206 14.6037C14.2222 14.6144 14.1225 14.6049 14.0278 14.5758L11.6236 13.9529L11.3576 13.8505C11.2803 13.822 11.2438 13.8431 11.2207 13.9295L10.8627 15.2697C10.7395 15.7309 10.6254 16.1867 10.4513 16.6651C10.3971 16.8542 10.2717 17.0149 10.1015 17.1131C9.93122 17.2114 9.7294 17.2397 9.53854 17.1921C9.34145 17.154 9.16247 17.0516 9.02965 16.9009C8.94981 16.8098 8.89356 16.7005 8.86582 16.5826C8.83808 16.4647 8.83972 16.3419 8.87059 16.2249L9.35184 14.4235L9.74896 12.7926L9.7692 12.6591Z" fill="#F2F2F2"/>
<path d="M5.52697 4.00538C6.1178 3.66188 6.79757 3.50206 7.47988 3.54622C8.16219 3.59038 8.81623 3.83653 9.35887 4.25339C9.90152 4.67025 10.3083 5.239 10.5274 5.88734C10.7466 6.53569 10.7683 7.23437 10.5897 7.89457C10.4112 8.55477 10.0404 9.1467 9.52462 9.59511C9.00882 10.0435 8.37125 10.3282 7.69294 10.4129C7.01463 10.4976 6.32621 10.3786 5.71518 10.0709C5.10414 9.76322 4.59808 9.28081 4.26131 8.68497C3.81167 7.89503 3.69239 6.95954 3.92953 6.08277C4.16666 5.206 4.74095 4.45918 5.52697 4.00538ZM5.7635 7.82987C5.92879 8.12437 6.17746 8.36341 6.47816 8.51683C6.77885 8.67025 7.1181 8.73118 7.45311 8.69195C7.78813 8.65271 8.1039 8.51506 8.36061 8.29635C8.61732 8.07765 8.80347 7.78768 8.89558 7.46303C8.98769 7.13838 8.98163 6.79358 8.87818 6.47212C8.77472 6.15066 8.5785 5.86694 8.31426 5.65673C8.05001 5.44653 7.72959 5.31926 7.39339 5.29098C7.05719 5.2627 6.72027 5.33467 6.42514 5.49782C6.2281 5.60674 6.05458 5.75361 5.91456 5.92998C5.77455 6.10634 5.67081 6.30873 5.60932 6.52547C5.54782 6.74222 5.52979 6.96905 5.55625 7.19291C5.58271 7.41678 5.65314 7.63325 5.7635 7.82987Z" fill="#F2F2F2"/>
</g>
<defs>
<clipPath id="clip0_501_2391">
<rect width="16" height="16" fill="white"/>
</clipPath>
</defs>
</svg>
